<?xml version="1.0" encoding="UTF-8"?>
<svg width="23px" height="23px" viewBox="0 0 23 23" version="1.1" xmlns="http://www.w3.org/2000/svg" xmlns:xlink="http://www.w3.org/1999/xlink">
    <title>instagram-square-brands</title>
    <g id="Design-Update" stroke="none" stroke-width="1" fill="none" fill-rule="evenodd">
        <g id="Desktop-HD" transform="translate(-1144.000000, -3319.000000)" fill="#FFFFFF" fill-rule="nonzero">
            <g id="footer" transform="translate(-15.000000, 3213.000000)">
                <g id="social" transform="translate(1065.000000, 65.000000)">
                    <g id="instagram-square-brands" transform="translate(94.000000, 41.000000)">
                        <path d="M11.2,8.533 C9.72718687,8.53355224 8.53363196,9.72785323 8.534,11.2006664 C8.53436821,12.6734796 9.72851999,13.8671838 11.2013332,13.8669998 C12.6741464,13.8668158 13.868,12.6728132 13.868,11.2 C13.8668964,9.72712349 12.6728768,8.53355143 11.2,8.533 L11.2,8.533 Z M17.4355,6.483 C17.1610591,5.78749945 16.6105006,5.23694088 15.915,4.9625 C14.865,4.548 12.365,4.641 11.2,4.641 C10.035,4.641 7.5375,4.5445 6.4845,4.9625 C5.78899945,5.23694088 5.23844088,5.78749945 4.964,6.483 C4.55,7.533 4.6425,10.0355 4.6425,11.1995 C4.6425,12.3635 4.55,14.863 4.966,15.9165 C5.24044088,16.6120006 5.79099945,17.1625591 6.4865,17.437 C7.5365,17.8515 10.0365,17.7585 11.202,17.7585 C12.3675,17.7585 14.864,17.855 15.917,17.437 C16.6125006,17.1625591 17.1630591,16.6120006 17.4375,15.9165 C17.855,14.8665 17.759,12.364 17.759,11.2 C17.759,10.036 17.855,7.537 17.4375,6.4835 L17.4355,6.483 Z M11.2,15.3000031 C8.93563253,15.3000031 7.1,13.4643675 7.1,11.2 C7.1,8.93563253 8.93563253,7.1 11.2,7.1 C13.4643675,7.1 15.3000031,8.93563253 15.3000031,11.2 C15.301329,12.2877945 14.8697928,13.3314179 14.1006053,14.1006053 C13.3314179,14.8697928 12.2877945,15.301329 11.2,15.3000031 L11.2,15.3000031 Z M15.469,7.885 C15.0818842,7.88520225 14.7327738,7.65216497 14.5844909,7.29457463 C14.4362079,6.9369843 14.5179613,6.52527955 14.791622,6.25147579 C15.0652827,5.97767202 15.4769447,5.89570348 15.8346125,6.04379955 C16.1922802,6.19189563 16.4255084,6.54088414 16.4255084,6.928 C16.4265634,7.18188747 16.326486,7.42574834 16.1473816,7.60569716 C15.9682771,7.78564598 15.7248897,7.8868693 15.471,7.887 L15.469,7.885 Z M20,0 L2.4,0 C1.0745166,0 0,1.0745166 0,2.4 L0,20 C0,21.3254834 1.0745166,22.4 2.4,22.4 L20,22.4 C21.3254834,22.4 22.4,21.3254834 22.4,20 L22.4,2.4 C22.4,1.0745166 21.3254834,0 20,0 L20,0 Z M19.144,14.5 C19.0795,15.7815 18.787,16.917 17.8515,17.85 C16.916,18.783 15.7815,19.0815 14.5015,19.1425 C13.181,19.217 9.222,19.217 7.9015,19.1425 C6.62,19.078 5.4885,18.785 4.5515,17.85 C3.6145,16.915 3.32,15.779 3.259,14.5 C3.1845,13.179 3.1845,9.2195 3.259,7.9 C3.3235,6.6185 3.6125,5.483 4.5515,4.55 C5.4905,3.617 6.625,3.322 7.9015,3.261 C9.222,3.1865 13.181,3.1865 14.5015,3.261 C15.783,3.3255 16.918,3.6185 17.8515,4.5535 C18.785,5.4885 19.083,6.6245 19.144,7.906 C19.2185,9.222 19.2185,13.178 19.144,14.5 Z" id="Shape"></path>
                    </g>
                </g>
            </g>
        </g>
    </g>
</svg>