<?xml version="1.0" encoding="UTF-8"?>
<svg width="21px" height="21px" viewBox="0 0 21 21" version="1.1" xmlns="http://www.w3.org/2000/svg" xmlns:xlink="http://www.w3.org/1999/xlink">
    <title>location-arrow-light</title>
    <g id="Design-Update" stroke="none" stroke-width="1" fill="none" fill-rule="evenodd">
        <g id="Desktop-HD" transform="translate(-225.000000, -3352.000000)" fill="#EE6C4D" fill-rule="nonzero">
            <g id="footer" transform="translate(-15.000000, 3213.000000)">
                <g id="locations" transform="translate(237.000000, 65.000000)">
                    <g id="conn" transform="translate(0.000000, 41.000000)">
                        <g id="location-arrow-light" transform="translate(3.000260, 33.000000)">
                            <path d="M18.4757396,0 C18.2465396,0 18.0121396,0.044 17.7801396,0.1408 L1.14933962,7.8164 C-0.76946038,8.712 -0.12986038,11.5264 1.91693962,11.5264 L8.95333962,11.5264 L8.95333962,18.5628 C8.95333962,19.7632 9.92173962,20.48 10.9029396,20.48 C11.5949396,20.48 12.2929396,20.124 12.6633396,19.3304 L20.3393396,2.6992 C20.8821396,1.3956 19.7653396,0 18.4757396,0 Z M19.1777396,2.1632 L11.5037396,18.7896 C11.3765396,19.0624 11.1741396,19.2008 10.9025396,19.2008 C10.6705396,19.2008 10.2321396,19.0676 10.2321396,18.5632 L10.2321396,10.2472 L1.91693962,10.2472 C1.45893962,10.2472 1.33133962,9.894 1.29733962,9.742 C1.25333962,9.5448 1.24653962,9.1828 1.68533962,8.978 L18.2725396,1.3216 C18.3409396,1.2932 18.4073396,1.2796 18.4761396,1.2796 C18.6929396,1.2796 18.9357396,1.4256 19.0805396,1.6428 C19.1681396,1.7744 19.2533396,1.9792 19.1777396,2.1632 Z" id="Shape"></path>
                        </g>
                    </g>
                </g>
            </g>
        </g>
    </g>
</svg>