<?xml version="1.0" encoding="UTF-8"?>
<svg width="16px" height="26px" viewBox="0 0 16 26" version="1.1" xmlns="http://www.w3.org/2000/svg" xmlns:xlink="http://www.w3.org/1999/xlink">
    <title>mobile-android-light</title>
    <g id="Design-Update" stroke="none" stroke-width="1" fill="none" fill-rule="evenodd">
        <g id="Desktop-HD" transform="translate(-228.000000, -3390.000000)" fill="#EE6C4D" fill-rule="nonzero">
            <g id="footer" transform="translate(-15.000000, 3213.000000)">
                <g id="locations" transform="translate(237.000000, 65.000000)">
                    <g id="conn" transform="translate(0.000000, 41.000000)">
                        <g id="mobile-android-light" transform="translate(6.000000, 71.000000)">
                            <path d="M9.8,22.4 L6.2,22.4 C5.87,22.4 5.6,22.13 5.6,21.8 L5.6,21.4 C5.6,21.07 5.87,20.8 6.2,20.8 L9.8,20.8 C10.13,20.8 10.4,21.07 10.4,21.4 L10.4,21.8 C10.4,22.13 10.13,22.4 9.8,22.4 Z M16,2.4 L16,23.2 C16,24.525 14.925,25.6 13.6,25.6 L2.4,25.6 C1.075,25.6 0,24.525 0,23.2 L0,2.4 C0,1.075 1.075,0 2.4,0 L13.6,0 C14.925,0 16,1.075 16,2.4 Z M14.4,2.4 C14.4,1.96 14.04,1.6 13.6,1.6 L2.4,1.6 C1.96,1.6 1.6,1.96 1.6,2.4 L1.6,23.2 C1.6,23.64 1.96,24 2.4,24 L13.6,24 C14.04,24 14.4,23.64 14.4,23.2 L14.4,2.4 Z" id="Shape"></path>
                        </g>
                    </g>
                </g>
            </g>
        </g>
    </g>
</svg>