<?xml version="1.0" encoding="UTF-8"?>
<svg width="23px" height="23px" viewBox="0 0 23 23" version="1.1" xmlns="http://www.w3.org/2000/svg" xmlns:xlink="http://www.w3.org/1999/xlink">
    <title>twitter-square-brands</title>
    <g id="Design-Update" stroke="none" stroke-width="1" fill="none" fill-rule="evenodd">
        <g id="Desktop-HD" transform="translate(-1097.000000, -3319.000000)" fill="#FFFFFF" fill-rule="nonzero">
            <g id="footer" transform="translate(-15.000000, 3213.000000)">
                <g id="social" transform="translate(1065.000000, 65.000000)">
                    <g id="twitter-square-brands" transform="translate(47.000000, 41.000000)">
                        <path d="M20,0 L2.4,0 C1.075,0 0,1.075 0,2.4 L0,20 C0,21.325 1.075,22.4 2.4,22.4 L20,22.4 C21.325,22.4 22.4,21.325 22.4,20 L22.4,2.4 C22.4,1.075 21.325,0 20,0 Z M17.555,7.94 C17.565,8.08 17.565,8.225 17.565,8.365 C17.565,12.7 14.265,17.695 8.235,17.695 C6.375,17.695 4.65,17.155 3.2,16.225 C3.465,16.255 3.72,16.265 3.99,16.265 C5.525,16.265 6.935,15.745 8.06,14.865 C6.62,14.835 5.41,13.89 4.995,12.59 C5.5,12.665 5.955,12.665 6.475,12.53 C4.975,12.225 3.85,10.905 3.85,9.31 L3.85,9.27 C4.285,9.515 4.795,9.665 5.33,9.685 C4.41642408,9.07731837 3.86820369,8.05222135 3.87,6.955 C3.87,6.345 4.03,5.785 4.315,5.3 C5.93,7.29 8.355,8.59 11.075,8.73 C10.61,6.505 12.275,4.7 14.275,4.7 C15.22,4.7 16.07,5.095 16.67,5.735 C17.41,5.595 18.12,5.32 18.75,4.945 C18.505,5.705 17.99,6.345 17.31,6.75 C17.97,6.68 18.61,6.495 19.2,6.24 C18.755,6.895 18.195,7.475 17.555,7.94 L17.555,7.94 Z" id="Shape"></path>
                    </g>
                </g>
            </g>
        </g>
    </g>
</svg>