<?xml version="1.0" encoding="UTF-8"?>
<svg width="23px" height="23px" viewBox="0 0 23 23" version="1.1" xmlns="http://www.w3.org/2000/svg" xmlns:xlink="http://www.w3.org/1999/xlink">
    <title>youtube-square-brands</title>
    <g id="Design-Update" stroke="none" stroke-width="1" fill="none" fill-rule="evenodd">
        <g id="Desktop-HD" transform="translate(-1050.000000, -3319.000000)" fill="#FFFFFF" fill-rule="nonzero">
            <g id="footer" transform="translate(-15.000000, 3213.000000)">
                <g id="social" transform="translate(1065.000000, 65.000000)">
                    <g id="youtube-square-brands" transform="translate(0.000000, 41.000000)">
                        <path d="M9.34,8.505 L14.1,11.21 L9.34,13.915 L9.34,8.505 Z M22.4,2.4 L22.4,20 C22.4,21.325 21.325,22.4 20,22.4 L2.4,22.4 C1.075,22.4 0,21.325 0,20 L0,2.4 C0,1.075 1.075,0 2.4,0 L20,0 C21.325,0 22.4,1.075 22.4,2.4 Z M20.3,11.215 C20.3,11.215 20.3,8.235 19.92,6.805 C19.71,6.015 19.095,5.395 18.31,5.185 C16.895,4.8 11.2,4.8 11.2,4.8 C11.2,4.8 5.505,4.8 4.09,5.185 C3.305,5.395 2.69,6.015 2.48,6.805 C2.1,8.23 2.1,11.215 2.1,11.215 C2.1,11.215 2.1,14.195 2.48,15.625 C2.69,16.415 3.305,17.01 4.09,17.22 C5.505,17.6 11.2,17.6 11.2,17.6 C11.2,17.6 16.895,17.6 18.31,17.215 C19.095,17.005 19.71,16.41 19.92,15.62 C20.3,14.195 20.3,11.215 20.3,11.215 L20.3,11.215 Z" id="Shape"></path>
                    </g>
                </g>
            </g>
        </g>
    </g>
</svg>